<?xml version="1.0" encoding="utf-8" standalone="no"?>
<!DOCTYPE svg PUBLIC "-//W3C//DTD SVG 1.1//EN"
  "http://www.w3.org/Graphics/SVG/1.1/DTD/svg11.dtd">
<svg xmlns:xlink="http://www.w3.org/1999/xlink" width="464.256pt" height="238.651437pt" viewBox="0 0 464.256 238.651437" xmlns="http://www.w3.org/2000/svg" version="1.1">
 <metadata>
  <rdf:RDF xmlns:dc="http://purl.org/dc/elements/1.1/" xmlns:cc="http://creativecommons.org/ns#" xmlns:rdf="http://www.w3.org/1999/02/22-rdf-syntax-ns#">
   <cc:Work>
    <dc:type rdf:resource="http://purl.org/dc/dcmitype/StillImage"/>
    <dc:date>2026-07-19T03:39:29.645657</dc:date>
    <dc:format>image/svg+xml</dc:format>
    <dc:creator>
     <cc:Agent>
      <dc:title>Matplotlib v3.10.9, https://matplotlib.org/</dc:title>
     </cc:Agent>
    </dc:creator>
   </cc:Work>
  </rdf:RDF>
 </metadata>
 <defs>
  <style type="text/css">*{stroke-linejoin: round; stroke-linecap: butt}</style>
 </defs>
 <g id="figure_1">
  <g id="patch_1">
   <path d="M 0 238.651437 
L 464.256 238.651437 
L 464.256 0 
L 0 0 
z
" style="fill: #ffffff"/>
  </g>
  <g id="axes_1">
   <g id="patch_2">
    <path d="M 60.876 207.648 
L 240.957818 207.648 
L 240.957818 30.24 
L 60.876 30.24 
z
" style="fill: #ffffff"/>
   </g>
   <g id="FillBetweenPolyCollection_1">
    <defs>
     <path id="mb7f62bfdae" d="M 69.061537 -39.067437 
L 69.061537 -39.067437 
L 70.437258 -39.067437 
L 71.812978 -39.067437 
L 73.188699 -39.067437 
L 74.564419 -39.067437 
L 75.94014 -39.067437 
L 77.31586 -39.067437 
L 78.691581 -39.067437 
L 80.067301 -39.067437 
L 81.443022 -39.067437 
L 82.818743 -39.067437 
L 84.194463 -39.067437 
L 85.570184 -39.067437 
L 86.945904 -39.067437 
L 88.321625 -39.067437 
L 89.697345 -39.067437 
L 91.073066 -39.067437 
L 92.448786 -39.067437 
L 93.824507 -39.067437 
L 95.200227 -39.067437 
L 96.575948 -39.067437 
L 97.951668 -39.067437 
L 99.327389 -39.067437 
L 100.70311 -39.067437 
L 102.07883 -39.067437 
L 103.454551 -39.067437 
L 104.830271 -39.067437 
L 106.205992 -39.067437 
L 107.581712 -39.067437 
L 108.957433 -39.067437 
L 110.333153 -39.067437 
L 111.708874 -39.067437 
L 113.084594 -39.067437 
L 114.460315 -39.067437 
L 115.836035 -39.067437 
L 117.211756 -39.067437 
L 118.587476 -39.067437 
L 119.963197 -39.067437 
L 121.338918 -39.067437 
L 122.714638 -39.067437 
L 124.090359 -39.067437 
L 125.466079 -39.067437 
L 126.8418 -39.067437 
L 128.21752 -39.067437 
L 129.593241 -39.067437 
L 130.968961 -39.067437 
L 132.344682 -39.067437 
L 133.720402 -39.067437 
L 135.096123 -39.067437 
L 136.471843 -39.067437 
L 137.847564 -39.067437 
L 139.223285 -39.067437 
L 140.599005 -39.067437 
L 141.974726 -39.067437 
L 143.350446 -39.067437 
L 144.726167 -39.067437 
L 146.101887 -39.067437 
L 147.477608 -39.067437 
L 148.853328 -39.067437 
L 150.229049 -39.067437 
L 151.604769 -39.067437 
L 152.98049 -39.067437 
L 154.35621 -39.067437 
L 155.731931 -39.067437 
L 157.107652 -39.067437 
L 158.483372 -39.067437 
L 159.859093 -39.067437 
L 161.234813 -39.067437 
L 162.610534 -39.067437 
L 163.986254 -39.067437 
L 165.361975 -39.067437 
L 166.737695 -39.067437 
L 168.113416 -39.067437 
L 169.489136 -39.067437 
L 170.864857 -39.067437 
L 172.240577 -39.067437 
L 173.616298 -39.067437 
L 174.992018 -39.067437 
L 176.367739 -39.067437 
L 177.74346 -39.067437 
L 179.11918 -39.067437 
L 180.494901 -39.067437 
L 181.870621 -39.067437 
L 183.246342 -39.067437 
L 184.622062 -39.067437 
L 185.997783 -39.067437 
L 187.373503 -39.067437 
L 188.749224 -39.067437 
L 190.124944 -39.067437 
L 191.500665 -39.067437 
L 192.876385 -39.067437 
L 194.252106 -39.067437 
L 195.627827 -39.067437 
L 197.003547 -39.067437 
L 198.379268 -39.067437 
L 199.754988 -39.067437 
L 201.130709 -39.067437 
L 202.506429 -39.067437 
L 203.88215 -39.067437 
L 205.25787 -39.067437 
L 206.633591 -39.067437 
L 208.009311 -39.067437 
L 209.385032 -39.067437 
L 210.760752 -39.067437 
L 212.136473 -39.067437 
L 213.512193 -39.067437 
L 214.887914 -39.067437 
L 216.263635 -39.067437 
L 217.639355 -39.067437 
L 219.015076 -39.067437 
L 220.390796 -39.067437 
L 221.766517 -39.067437 
L 223.142237 -39.067437 
L 224.517958 -39.067437 
L 225.893678 -39.067437 
L 227.269399 -39.067437 
L 228.645119 -39.067437 
L 230.02084 -39.067437 
L 231.39656 -39.067437 
L 232.772281 -39.067437 
L 232.772281 -200.347438 
L 232.772281 -200.347438 
L 231.39656 -200.347438 
L 230.02084 -200.347438 
L 228.645119 -200.347438 
L 227.269399 -183.83365 
L 225.893678 -183.83365 
L 224.517958 -183.83365 
L 223.142237 -183.83365 
L 221.766517 -154.281053 
L 220.390796 -154.281053 
L 219.015076 -154.281053 
L 217.639355 -154.281053 
L 216.263635 -154.281053 
L 214.887914 -133.305402 
L 213.512193 -133.305402 
L 212.136473 -133.305402 
L 210.760752 -154.281053 
L 209.385032 -120.895342 
L 208.009311 -112.841793 
L 206.633591 -112.841793 
L 205.25787 -140.971916 
L 203.88215 -140.971916 
L 202.506429 -140.971916 
L 201.130709 -140.971916 
L 199.754988 -125.674756 
L 198.379268 -125.674756 
L 197.003547 -125.674756 
L 195.627827 -125.674756 
L 194.252106 -101.306511 
L 192.876385 -101.306511 
L 191.500665 -101.306511 
L 190.124944 -101.306511 
L 188.749224 -101.306511 
L 187.373503 -84.996404 
L 185.997783 -84.996404 
L 184.622062 -84.996404 
L 183.246342 -101.306511 
L 181.870621 -75.244029 
L 180.494901 -69.863369 
L 179.11918 -69.863369 
L 177.74346 -112.66374 
L 176.367739 -112.66374 
L 174.992018 -112.66374 
L 173.616298 -112.66374 
L 172.240577 -99.497559 
L 170.864857 -99.497559 
L 169.489136 -99.497559 
L 168.113416 -99.497559 
L 166.737695 -79.343901 
L 165.361975 -79.343901 
L 163.986254 -79.343901 
L 162.610534 -79.343901 
L 161.234813 -79.343901 
L 159.859093 -65.944086 
L 158.483372 -65.944086 
L 157.107652 -65.944086 
L 155.731931 -79.343901 
L 154.35621 -58.287885 
L 152.98049 -53.519387 
L 151.604769 -53.519387 
L 150.229049 -96.447223 
L 148.853328 -96.447223 
L 147.477608 -96.447223 
L 146.101887 -96.447223 
L 144.726167 -83.861638 
L 143.350446 -83.861638 
L 141.974726 -83.861638 
L 140.599005 -83.861638 
L 139.223285 -65.789945 
L 137.847564 -65.789945 
L 136.471843 -65.789945 
L 135.096123 -65.789945 
L 133.720402 -65.789945 
L 132.344682 -54.087261 
L 130.968961 -54.087261 
L 129.593241 -54.087261 
L 128.21752 -65.789945 
L 126.8418 -47.538215 
L 125.466079 -43.273804 
L 124.090359 -43.273804 
L 122.714638 -90.399411 
L 121.338918 -90.399411 
L 119.963197 -90.399411 
L 118.587476 -90.399411 
L 117.211756 -78.583549 
L 115.836035 -78.583549 
L 114.460315 -78.583549 
L 113.084594 -78.583549 
L 111.708874 -60.885222 
L 110.333153 -60.885222 
L 108.957433 -60.885222 
L 107.581712 -60.885222 
L 106.205992 -60.885222 
L 104.830271 -49.632352 
L 103.454551 -49.632352 
L 102.07883 -49.632352 
L 100.70311 -60.885222 
L 99.327389 -43.54418 
L 97.951668 -39.419667 
L 96.575948 -39.419667 
L 95.200227 -89.794454 
L 93.824507 -89.794454 
L 92.448786 -89.794454 
L 91.073066 -89.794454 
L 89.697345 -78.060899 
L 88.321625 -78.060899 
L 86.945904 -78.060899 
L 85.570184 -78.060899 
L 84.194463 -60.449201 
L 82.818743 -60.449201 
L 81.443022 -60.449201 
L 80.067301 -60.449201 
L 78.691581 -60.449201 
L 77.31586 -49.274716 
L 75.94014 -49.274716 
L 74.564419 -49.274716 
L 73.188699 -60.449201 
L 71.812978 -43.16322 
L 70.437258 -39.067437 
L 69.061537 -39.067437 
z
" style="stroke: #f3d5d0"/>
    </defs>
    <g clip-path="url(#p2ca0cd43f2)">
     <use xlink:href="#mb7f62bfdae" x="0" y="238.651437" style="fill: #f3d5d0; stroke: #f3d5d0"/>
    </g>
   </g>
   <g id="matplotlib.axis_1">
    <g id="xtick_1">
     <g id="line2d_1">
      <defs>
       <path id="mccfe2277a0" d="M 0 0 
L 0 3.5 
" style="stroke: #000000; stroke-width: 0.8"/>
      </defs>
      <g>
       <use xlink:href="#mccfe2277a0" x="69.061537" y="207.648" style="stroke: #000000; stroke-width: 0.8"/>
      </g>
     </g>
     <g id="text_1">
      <text style="font-size: 7px; font-family: 'Arial', 'Helvetica', 'DejaVu Sans', sans-serif; text-anchor: middle" x="69.061537" y="219.658469" transform="rotate(-0 69.061537 219.658469)">0</text>
     </g>
    </g>
    <g id="xtick_2">
     <g id="line2d_2">
      <g>
       <use xlink:href="#mccfe2277a0" x="96.575948" y="207.648" style="stroke: #000000; stroke-width: 0.8"/>
      </g>
     </g>
     <g id="text_2">
      <text style="font-size: 7px; font-family: 'Arial', 'Helvetica', 'DejaVu Sans', sans-serif; text-anchor: middle" x="96.575948" y="219.658469" transform="rotate(-0 96.575948 219.658469)">20</text>
     </g>
    </g>
    <g id="xtick_3">
     <g id="line2d_3">
      <g>
       <use xlink:href="#mccfe2277a0" x="124.090359" y="207.648" style="stroke: #000000; stroke-width: 0.8"/>
      </g>
     </g>
     <g id="text_3">
      <text style="font-size: 7px; font-family: 'Arial', 'Helvetica', 'DejaVu Sans', sans-serif; text-anchor: middle" x="124.090359" y="219.658469" transform="rotate(-0 124.090359 219.658469)">40</text>
     </g>
    </g>
    <g id="xtick_4">
     <g id="line2d_4">
      <g>
       <use xlink:href="#mccfe2277a0" x="151.604769" y="207.648" style="stroke: #000000; stroke-width: 0.8"/>
      </g>
     </g>
     <g id="text_4">
      <text style="font-size: 7px; font-family: 'Arial', 'Helvetica', 'DejaVu Sans', sans-serif; text-anchor: middle" x="151.604769" y="219.658469" transform="rotate(-0 151.604769 219.658469)">60</text>
     </g>
    </g>
    <g id="xtick_5">
     <g id="line2d_5">
      <g>
       <use xlink:href="#mccfe2277a0" x="179.11918" y="207.648" style="stroke: #000000; stroke-width: 0.8"/>
      </g>
     </g>
     <g id="text_5">
      <text style="font-size: 7px; font-family: 'Arial', 'Helvetica', 'DejaVu Sans', sans-serif; text-anchor: middle" x="179.11918" y="219.658469" transform="rotate(-0 179.11918 219.658469)">80</text>
     </g>
    </g>
    <g id="xtick_6">
     <g id="line2d_6">
      <g>
       <use xlink:href="#mccfe2277a0" x="206.633591" y="207.648" style="stroke: #000000; stroke-width: 0.8"/>
      </g>
     </g>
     <g id="text_6">
      <text style="font-size: 7px; font-family: 'Arial', 'Helvetica', 'DejaVu Sans', sans-serif; text-anchor: middle" x="206.633591" y="219.658469" transform="rotate(-0 206.633591 219.658469)">100</text>
     </g>
    </g>
    <g id="xtick_7">
     <g id="line2d_7">
      <g>
       <use xlink:href="#mccfe2277a0" x="234.148002" y="207.648" style="stroke: #000000; stroke-width: 0.8"/>
      </g>
     </g>
     <g id="text_7">
      <text style="font-size: 7px; font-family: 'Arial', 'Helvetica', 'DejaVu Sans', sans-serif; text-anchor: middle" x="234.148002" y="219.658469" transform="rotate(-0 234.148002 219.658469)">120</text>
     </g>
    </g>
    <g id="text_8">
     <text style="font-size: 7px; font-family: 'Arial', 'Helvetica', 'DejaVu Sans', sans-serif; text-anchor: middle" x="150.916909" y="230.060187" transform="rotate(-0 150.916909 230.060187)">Threshold combination index</text>
    </g>
   </g>
   <g id="matplotlib.axis_2">
    <g id="ytick_1">
     <g id="line2d_8">
      <path d="M 60.876 186.994604 
L 240.957818 186.994604 
" clip-path="url(#p2ca0cd43f2)" style="fill: none; stroke: #e6ecef; stroke-width: 0.6; stroke-linecap: square"/>
     </g>
     <g id="line2d_9">
      <defs>
       <path id="m38c890c965" d="M 0 0 
L -3.5 0 
" style="stroke: #000000; stroke-width: 0.8"/>
      </defs>
      <g>
       <use xlink:href="#m38c890c965" x="60.876" y="186.994604" style="stroke: #000000; stroke-width: 0.8"/>
      </g>
     </g>
     <g id="text_9">
      <text style="font-size: 7px; font-family: 'Arial', 'Helvetica', 'DejaVu Sans', sans-serif; text-anchor: end" x="53.876" y="189.499839" transform="rotate(-0 53.876 189.499839)">0.15</text>
     </g>
    </g>
    <g id="ytick_2">
     <g id="line2d_10">
      <path d="M 60.876 165.407213 
L 240.957818 165.407213 
" clip-path="url(#p2ca0cd43f2)" style="fill: none; stroke: #e6ecef; stroke-width: 0.6; stroke-linecap: square"/>
     </g>
     <g id="line2d_11">
      <g>
       <use xlink:href="#m38c890c965" x="60.876" y="165.407213" style="stroke: #000000; stroke-width: 0.8"/>
      </g>
     </g>
     <g id="text_10">
      <text style="font-size: 7px; font-family: 'Arial', 'Helvetica', 'DejaVu Sans', sans-serif; text-anchor: end" x="53.876" y="167.912447" transform="rotate(-0 53.876 167.912447)">0.20</text>
     </g>
    </g>
    <g id="ytick_3">
     <g id="line2d_12">
      <path d="M 60.876 143.819821 
L 240.957818 143.819821 
" clip-path="url(#p2ca0cd43f2)" style="fill: none; stroke: #e6ecef; stroke-width: 0.6; stroke-linecap: square"/>
     </g>
     <g id="line2d_13">
      <g>
       <use xlink:href="#m38c890c965" x="60.876" y="143.819821" style="stroke: #000000; stroke-width: 0.8"/>
      </g>
     </g>
     <g id="text_11">
      <text style="font-size: 7px; font-family: 'Arial', 'Helvetica', 'DejaVu Sans', sans-serif; text-anchor: end" x="53.876" y="146.325056" transform="rotate(-0 53.876 146.325056)">0.25</text>
     </g>
    </g>
    <g id="ytick_4">
     <g id="line2d_14">
      <path d="M 60.876 122.23243 
L 240.957818 122.23243 
" clip-path="url(#p2ca0cd43f2)" style="fill: none; stroke: #e6ecef; stroke-width: 0.6; stroke-linecap: square"/>
     </g>
     <g id="line2d_15">
      <g>
       <use xlink:href="#m38c890c965" x="60.876" y="122.23243" style="stroke: #000000; stroke-width: 0.8"/>
      </g>
     </g>
     <g id="text_12">
      <text style="font-size: 7px; font-family: 'Arial', 'Helvetica', 'DejaVu Sans', sans-serif; text-anchor: end" x="53.876" y="124.737664" transform="rotate(-0 53.876 124.737664)">0.30</text>
     </g>
    </g>
    <g id="ytick_5">
     <g id="line2d_16">
      <path d="M 60.876 100.645038 
L 240.957818 100.645038 
" clip-path="url(#p2ca0cd43f2)" style="fill: none; stroke: #e6ecef; stroke-width: 0.6; stroke-linecap: square"/>
     </g>
     <g id="line2d_17">
      <g>
       <use xlink:href="#m38c890c965" x="60.876" y="100.645038" style="stroke: #000000; stroke-width: 0.8"/>
      </g>
     </g>
     <g id="text_13">
      <text style="font-size: 7px; font-family: 'Arial', 'Helvetica', 'DejaVu Sans', sans-serif; text-anchor: end" x="53.876" y="103.150272" transform="rotate(-0 53.876 103.150272)">0.35</text>
     </g>
    </g>
    <g id="ytick_6">
     <g id="line2d_18">
      <path d="M 60.876 79.057646 
L 240.957818 79.057646 
" clip-path="url(#p2ca0cd43f2)" style="fill: none; stroke: #e6ecef; stroke-width: 0.6; stroke-linecap: square"/>
     </g>
     <g id="line2d_19">
      <g>
       <use xlink:href="#m38c890c965" x="60.876" y="79.057646" style="stroke: #000000; stroke-width: 0.8"/>
      </g>
     </g>
     <g id="text_14">
      <text style="font-size: 7px; font-family: 'Arial', 'Helvetica', 'DejaVu Sans', sans-serif; text-anchor: end" x="53.876" y="81.562881" transform="rotate(-0 53.876 81.562881)">0.40</text>
     </g>
    </g>
    <g id="ytick_7">
     <g id="line2d_20">
      <path d="M 60.876 57.470255 
L 240.957818 57.470255 
" clip-path="url(#p2ca0cd43f2)" style="fill: none; stroke: #e6ecef; stroke-width: 0.6; stroke-linecap: square"/>
     </g>
     <g id="line2d_21">
      <g>
       <use xlink:href="#m38c890c965" x="60.876" y="57.470255" style="stroke: #000000; stroke-width: 0.8"/>
      </g>
     </g>
     <g id="text_15">
      <text style="font-size: 7px; font-family: 'Arial', 'Helvetica', 'DejaVu Sans', sans-serif; text-anchor: end" x="53.876" y="59.975489" transform="rotate(-0 53.876 59.975489)">0.45</text>
     </g>
    </g>
    <g id="ytick_8">
     <g id="line2d_22">
      <path d="M 60.876 35.882863 
L 240.957818 35.882863 
" clip-path="url(#p2ca0cd43f2)" style="fill: none; stroke: #e6ecef; stroke-width: 0.6; stroke-linecap: square"/>
     </g>
     <g id="line2d_23">
      <g>
       <use xlink:href="#m38c890c965" x="60.876" y="35.882863" style="stroke: #000000; stroke-width: 0.8"/>
      </g>
     </g>
     <g id="text_16">
      <text style="font-size: 7px; font-family: 'Arial', 'Helvetica', 'DejaVu Sans', sans-serif; text-anchor: end" x="53.876" y="38.388098" transform="rotate(-0 53.876 38.388098)">0.50</text>
     </g>
    </g>
    <g id="text_17">
     <text style="font-size: 7px; font-family: 'Arial', 'Helvetica', 'DejaVu Sans', sans-serif" transform="translate(27.273875 147.158922) rotate(-90)">Hidden population</text>
     <text style="font-size: 7px; font-family: 'Arial', 'Helvetica', 'DejaVu Sans', sans-serif" transform="translate(34.780062 142.675094) rotate(-90)">(million people)</text>
    </g>
   </g>
   <g id="line2d_24">
    <path d="M 69.061537 199.584 
L 70.437258 199.584 
L 71.812978 195.488217 
L 73.188699 178.202237 
L 74.564419 189.376721 
L 75.94014 189.376721 
L 77.31586 189.376721 
L 78.691581 178.202237 
L 80.067301 178.202237 
L 81.443022 178.202237 
L 82.818743 178.202237 
L 84.194463 178.202237 
L 85.570184 160.590538 
L 86.945904 160.590538 
L 88.321625 160.590538 
L 89.697345 160.590538 
L 91.073066 148.856984 
L 92.448786 148.856984 
L 93.824507 148.856984 
L 95.200227 148.856984 
L 96.575948 199.231771 
L 97.951668 199.231771 
L 99.327389 195.107257 
L 100.70311 177.766216 
L 102.07883 189.019086 
L 103.454551 189.019086 
L 104.830271 189.019086 
L 106.205992 177.766216 
L 107.581712 177.766216 
L 108.957433 177.766216 
L 110.333153 177.766216 
L 111.708874 177.766216 
L 113.084594 160.067888 
L 114.460315 160.067888 
L 115.836035 160.067888 
L 117.211756 160.067888 
L 118.587476 148.252026 
L 119.963197 148.252026 
L 121.338918 148.252026 
L 122.714638 148.252026 
L 124.090359 195.377633 
L 125.466079 195.377633 
L 126.8418 191.113222 
L 128.21752 172.861492 
L 129.593241 184.564176 
L 130.968961 184.564176 
L 132.344682 184.564176 
L 133.720402 172.861492 
L 135.096123 172.861492 
L 136.471843 172.861492 
L 137.847564 172.861492 
L 139.223285 172.861492 
L 140.599005 154.7898 
L 141.974726 154.7898 
L 143.350446 154.7898 
L 144.726167 154.7898 
L 146.101887 142.204214 
L 147.477608 142.204214 
L 148.853328 142.204214 
L 150.229049 142.204214 
L 151.604769 185.132051 
L 152.98049 185.132051 
L 154.35621 180.363552 
L 155.731931 159.307537 
L 157.107652 172.707351 
L 158.483372 172.707351 
L 159.859093 172.707351 
L 161.234813 159.307537 
L 162.610534 159.307537 
L 163.986254 159.307537 
L 165.361975 159.307537 
L 166.737695 159.307537 
L 168.113416 139.153878 
L 169.489136 139.153878 
L 170.864857 139.153878 
L 172.240577 139.153878 
L 173.616298 125.987697 
L 174.992018 125.987697 
L 176.367739 125.987697 
L 177.74346 125.987697 
L 179.11918 168.788069 
L 180.494901 168.788069 
L 181.870621 163.407408 
L 183.246342 137.344926 
L 184.622062 153.655033 
L 185.997783 153.655033 
L 187.373503 153.655033 
L 188.749224 137.344926 
L 190.124944 137.344926 
L 191.500665 137.344926 
L 192.876385 137.344926 
L 194.252106 137.344926 
L 195.627827 112.976681 
L 197.003547 112.976681 
L 198.379268 112.976681 
L 199.754988 112.976681 
L 201.130709 97.679522 
L 202.506429 97.679522 
L 203.88215 97.679522 
L 205.25787 97.679522 
L 206.633591 125.809644 
L 208.009311 125.809644 
L 209.385032 117.756096 
L 210.760752 84.370385 
L 212.136473 105.346036 
L 213.512193 105.346036 
L 214.887914 105.346036 
L 216.263635 84.370385 
L 217.639355 84.370385 
L 219.015076 84.370385 
L 220.390796 84.370385 
L 221.766517 84.370385 
L 223.142237 54.817788 
L 224.517958 54.817788 
L 225.893678 54.817788 
L 227.269399 54.817788 
L 228.645119 38.304 
L 230.02084 38.304 
L 231.39656 38.304 
L 232.772281 38.304 
" clip-path="url(#p2ca0cd43f2)" style="fill: none; stroke: #b44b4b; stroke-width: 1.4; stroke-linecap: square"/>
   </g>
   <g id="patch_3">
    <path d="M 60.876 207.648 
L 60.876 30.24 
" style="fill: none; stroke: #000000; stroke-width: 0.7; stroke-linejoin: miter; stroke-linecap: square"/>
   </g>
   <g id="patch_4">
    <path d="M 60.876 207.648 
L 240.957818 207.648 
" style="fill: none; stroke: #000000; stroke-width: 0.7; stroke-linejoin: miter; stroke-linecap: square"/>
   </g>
   <g id="text_18">
    <text style="font-weight: 700; font-size: 9px; font-family: 'Arial', 'Helvetica', 'DejaVu Sans', sans-serif; text-anchor: start" x="60.876" y="24.915746" transform="rotate(-0 60.876 24.915746)">a</text>
   </g>
  </g>
  <g id="axes_2">
   <g id="patch_5">
    <path d="M 276.974182 207.648 
L 457.056 207.648 
L 457.056 30.24 
L 276.974182 30.24 
z
" style="fill: #ffffff"/>
   </g>
   <g id="FillBetweenPolyCollection_2">
    <defs>
     <path id="mafe5eeb187" d="M 285.159719 -39.067437 
L 285.159719 -39.067437 
L 286.53544 -39.067437 
L 287.91116 -39.067437 
L 289.286881 -39.067437 
L 290.662601 -39.067437 
L 292.038322 -39.067437 
L 293.414042 -39.067437 
L 294.789763 -39.067437 
L 296.165483 -39.067437 
L 297.541204 -39.067437 
L 298.916924 -39.067437 
L 300.292645 -39.067437 
L 301.668365 -39.067437 
L 303.044086 -39.067437 
L 304.419807 -39.067437 
L 305.795527 -39.067437 
L 307.171248 -39.067437 
L 308.546968 -39.067437 
L 309.922689 -39.067437 
L 311.298409 -39.067437 
L 312.67413 -39.067437 
L 314.04985 -39.067437 
L 315.425571 -39.067437 
L 316.801291 -39.067437 
L 318.177012 -39.067437 
L 319.552732 -39.067437 
L 320.928453 -39.067437 
L 322.304173 -39.067437 
L 323.679894 -39.067437 
L 325.055615 -39.067437 
L 326.431335 -39.067437 
L 327.807056 -39.067437 
L 329.182776 -39.067437 
L 330.558497 -39.067437 
L 331.934217 -39.067437 
L 333.309938 -39.067437 
L 334.685658 -39.067437 
L 336.061379 -39.067437 
L 337.437099 -39.067437 
L 338.81282 -39.067437 
L 340.18854 -39.067437 
L 341.564261 -39.067437 
L 342.939982 -39.067437 
L 344.315702 -39.067437 
L 345.691423 -39.067437 
L 347.067143 -39.067437 
L 348.442864 -39.067437 
L 349.818584 -39.067437 
L 351.194305 -39.067437 
L 352.570025 -39.067437 
L 353.945746 -39.067437 
L 355.321466 -39.067437 
L 356.697187 -39.067437 
L 358.072907 -39.067437 
L 359.448628 -39.067437 
L 360.824348 -39.067437 
L 362.200069 -39.067437 
L 363.57579 -39.067437 
L 364.95151 -39.067437 
L 366.327231 -39.067437 
L 367.702951 -39.067437 
L 369.078672 -39.067437 
L 370.454392 -39.067437 
L 371.830113 -39.067437 
L 373.205833 -39.067437 
L 374.581554 -39.067437 
L 375.957274 -39.067437 
L 377.332995 -39.067437 
L 378.708715 -39.067437 
L 380.084436 -39.067437 
L 381.460157 -39.067437 
L 382.835877 -39.067437 
L 384.211598 -39.067437 
L 385.587318 -39.067437 
L 386.963039 -39.067437 
L 388.338759 -39.067437 
L 389.71448 -39.067437 
L 391.0902 -39.067437 
L 392.465921 -39.067437 
L 393.841641 -39.067437 
L 395.217362 -39.067437 
L 396.593082 -39.067437 
L 397.968803 -39.067437 
L 399.344524 -39.067437 
L 400.720244 -39.067437 
L 402.095965 -39.067437 
L 403.471685 -39.067437 
L 404.847406 -39.067437 
L 406.223126 -39.067437 
L 407.598847 -39.067437 
L 408.974567 -39.067437 
L 410.350288 -39.067437 
L 411.726008 -39.067437 
L 413.101729 -39.067437 
L 414.477449 -39.067437 
L 415.85317 -39.067437 
L 417.22889 -39.067437 
L 418.604611 -39.067437 
L 419.980332 -39.067437 
L 421.356052 -39.067437 
L 422.731773 -39.067437 
L 424.107493 -39.067437 
L 425.483214 -39.067437 
L 426.858934 -39.067437 
L 428.234655 -39.067437 
L 429.610375 -39.067437 
L 430.986096 -39.067437 
L 432.361816 -39.067437 
L 433.737537 -39.067437 
L 435.113257 -39.067437 
L 436.488978 -39.067437 
L 437.864699 -39.067437 
L 439.240419 -39.067437 
L 440.61614 -39.067437 
L 441.99186 -39.067437 
L 443.367581 -39.067437 
L 444.743301 -39.067437 
L 446.119022 -39.067437 
L 447.494742 -39.067437 
L 448.870463 -39.067437 
L 448.870463 -200.347438 
L 448.870463 -200.347438 
L 447.494742 -200.347438 
L 446.119022 -200.347438 
L 444.743301 -200.347438 
L 443.367581 -182.525487 
L 441.99186 -182.525487 
L 440.61614 -182.525487 
L 439.240419 -182.525487 
L 437.864699 -151.234936 
L 436.488978 -151.234936 
L 435.113257 -151.234936 
L 433.737537 -151.234936 
L 432.361816 -151.234936 
L 430.986096 -123.16344 
L 429.610375 -123.16344 
L 428.234655 -123.16344 
L 426.858934 -151.234936 
L 425.483214 -108.632047 
L 424.107493 -98.787709 
L 422.731773 -98.787709 
L 421.356052 -160.989906 
L 419.980332 -160.989906 
L 418.604611 -160.989906 
L 417.22889 -160.989906 
L 415.85317 -144.093899 
L 414.477449 -144.093899 
L 413.101729 -144.093899 
L 411.726008 -144.093899 
L 410.350288 -113.584512 
L 408.974567 -113.584512 
L 407.598847 -113.584512 
L 406.223126 -113.584512 
L 404.847406 -113.584512 
L 403.471685 -90.387222 
L 402.095965 -90.387222 
L 400.720244 -90.387222 
L 399.344524 -113.584512 
L 397.968803 -77.007785 
L 396.593082 -68.9701 
L 395.217362 -68.9701 
L 393.841641 -138.579611 
L 392.465921 -138.579611 
L 391.0902 -138.579611 
L 389.71448 -138.579611 
L 388.338759 -122.654357 
L 386.963039 -122.654357 
L 385.587318 -122.654357 
L 384.211598 -122.654357 
L 382.835877 -94.581686 
L 381.460157 -94.581686 
L 380.084436 -94.581686 
L 378.708715 -94.581686 
L 377.332995 -94.581686 
L 375.957274 -73.27617 
L 374.581554 -73.27617 
L 373.205833 -73.27617 
L 371.830113 -94.581686 
L 370.454392 -61.25852 
L 369.078672 -53.788922 
L 367.702951 -53.788922 
L 366.327231 -122.61181 
L 364.95151 -122.61181 
L 363.57579 -122.61181 
L 362.200069 -122.61181 
L 360.824348 -107.473259 
L 359.448628 -107.473259 
L 358.072907 -107.473259 
L 356.697187 -107.473259 
L 355.321466 -80.959635 
L 353.945746 -80.959635 
L 352.570025 -80.959635 
L 351.194305 -80.959635 
L 349.818584 -80.959635 
L 348.442864 -61.222117 
L 347.067143 -61.222117 
L 345.691423 -61.222117 
L 344.315702 -80.959635 
L 342.939982 -50.140045 
L 341.564261 -43.165912 
L 340.18854 -43.165912 
L 338.81282 -117.225335 
L 337.437099 -117.225335 
L 336.061379 -117.225335 
L 334.685658 -117.225335 
L 333.309938 -102.527867 
L 331.934217 -102.527867 
L 330.558497 -102.527867 
L 329.182776 -102.527867 
L 327.807056 -76.316827 
L 326.431335 -76.316827 
L 325.055615 -76.316827 
L 323.679894 -76.316827 
L 322.304173 -76.316827 
L 320.928453 -57.028214 
L 319.552732 -57.028214 
L 318.177012 -57.028214 
L 316.801291 -76.316827 
L 315.425571 -46.312405 
L 314.04985 -39.45181 
L 312.67413 -39.45181 
L 311.298409 -116.633813 
L 309.922689 -116.633813 
L 308.546968 -116.633813 
L 307.171248 -116.633813 
L 305.795527 -101.995058 
L 304.419807 -101.995058 
L 303.044086 -101.995058 
L 301.668365 -101.995058 
L 300.292645 -75.826458 
L 298.916924 -75.826458 
L 297.541204 -75.826458 
L 296.165483 -75.826458 
L 294.789763 -75.826458 
L 293.414042 -56.614898 
L 292.038322 -56.614898 
L 290.662601 -56.614898 
L 289.286881 -75.826458 
L 287.91116 -45.900626 
L 286.53544 -39.067437 
L 285.159719 -39.067437 
z
" style="stroke: #f0dcc1"/>
    </defs>
    <g clip-path="url(#p30ac4538a8)">
     <use xlink:href="#mafe5eeb187" x="0" y="238.651437" style="fill: #f0dcc1; stroke: #f0dcc1"/>
    </g>
   </g>
   <g id="matplotlib.axis_3">
    <g id="xtick_8">
     <g id="line2d_25">
      <g>
       <use xlink:href="#mccfe2277a0" x="285.159719" y="207.648" style="stroke: #000000; stroke-width: 0.8"/>
      </g>
     </g>
     <g id="text_19">
      <text style="font-size: 7px; font-family: 'Arial', 'Helvetica', 'DejaVu Sans', sans-serif; text-anchor: middle" x="285.159719" y="219.658469" transform="rotate(-0 285.159719 219.658469)">0</text>
     </g>
    </g>
    <g id="xtick_9">
     <g id="line2d_26">
      <g>
       <use xlink:href="#mccfe2277a0" x="312.67413" y="207.648" style="stroke: #000000; stroke-width: 0.8"/>
      </g>
     </g>
     <g id="text_20">
      <text style="font-size: 7px; font-family: 'Arial', 'Helvetica', 'DejaVu Sans', sans-serif; text-anchor: middle" x="312.67413" y="219.658469" transform="rotate(-0 312.67413 219.658469)">20</text>
     </g>
    </g>
    <g id="xtick_10">
     <g id="line2d_27">
      <g>
       <use xlink:href="#mccfe2277a0" x="340.18854" y="207.648" style="stroke: #000000; stroke-width: 0.8"/>
      </g>
     </g>
     <g id="text_21">
      <text style="font-size: 7px; font-family: 'Arial', 'Helvetica', 'DejaVu Sans', sans-serif; text-anchor: middle" x="340.18854" y="219.658469" transform="rotate(-0 340.18854 219.658469)">40</text>
     </g>
    </g>
    <g id="xtick_11">
     <g id="line2d_28">
      <g>
       <use xlink:href="#mccfe2277a0" x="367.702951" y="207.648" style="stroke: #000000; stroke-width: 0.8"/>
      </g>
     </g>
     <g id="text_22">
      <text style="font-size: 7px; font-family: 'Arial', 'Helvetica', 'DejaVu Sans', sans-serif; text-anchor: middle" x="367.702951" y="219.658469" transform="rotate(-0 367.702951 219.658469)">60</text>
     </g>
    </g>
    <g id="xtick_12">
     <g id="line2d_29">
      <g>
       <use xlink:href="#mccfe2277a0" x="395.217362" y="207.648" style="stroke: #000000; stroke-width: 0.8"/>
      </g>
     </g>
     <g id="text_23">
      <text style="font-size: 7px; font-family: 'Arial', 'Helvetica', 'DejaVu Sans', sans-serif; text-anchor: middle" x="395.217362" y="219.658469" transform="rotate(-0 395.217362 219.658469)">80</text>
     </g>
    </g>
    <g id="xtick_13">
     <g id="line2d_30">
      <g>
       <use xlink:href="#mccfe2277a0" x="422.731773" y="207.648" style="stroke: #000000; stroke-width: 0.8"/>
      </g>
     </g>
     <g id="text_24">
      <text style="font-size: 7px; font-family: 'Arial', 'Helvetica', 'DejaVu Sans', sans-serif; text-anchor: middle" x="422.731773" y="219.658469" transform="rotate(-0 422.731773 219.658469)">100</text>
     </g>
    </g>
    <g id="xtick_14">
     <g id="line2d_31">
      <g>
       <use xlink:href="#mccfe2277a0" x="450.246183" y="207.648" style="stroke: #000000; stroke-width: 0.8"/>
      </g>
     </g>
     <g id="text_25">
      <text style="font-size: 7px; font-family: 'Arial', 'Helvetica', 'DejaVu Sans', sans-serif; text-anchor: middle" x="450.246183" y="219.658469" transform="rotate(-0 450.246183 219.658469)">120</text>
     </g>
    </g>
    <g id="text_26">
     <text style="font-size: 7px; font-family: 'Arial', 'Helvetica', 'DejaVu Sans', sans-serif; text-anchor: middle" x="367.015091" y="230.060187" transform="rotate(-0 367.015091 230.060187)">Threshold combination index</text>
    </g>
   </g>
   <g id="matplotlib.axis_4">
    <g id="ytick_9">
     <g id="line2d_32">
      <path d="M 276.974182 196.365667 
L 457.056 196.365667 
" clip-path="url(#p30ac4538a8)" style="fill: none; stroke: #e6ecef; stroke-width: 0.6; stroke-linecap: square"/>
     </g>
     <g id="line2d_33">
      <g>
       <use xlink:href="#m38c890c965" x="276.974182" y="196.365667" style="stroke: #000000; stroke-width: 0.8"/>
      </g>
     </g>
     <g id="text_27">
      <text style="font-size: 7px; font-family: 'Arial', 'Helvetica', 'DejaVu Sans', sans-serif; text-anchor: end" x="269.974182" y="198.870901" transform="rotate(-0 269.974182 198.870901)">0.25</text>
     </g>
    </g>
    <g id="ytick_10">
     <g id="line2d_34">
      <path d="M 276.974182 174.202359 
L 457.056 174.202359 
" clip-path="url(#p30ac4538a8)" style="fill: none; stroke: #e6ecef; stroke-width: 0.6; stroke-linecap: square"/>
     </g>
     <g id="line2d_35">
      <g>
       <use xlink:href="#m38c890c965" x="276.974182" y="174.202359" style="stroke: #000000; stroke-width: 0.8"/>
      </g>
     </g>
     <g id="text_28">
      <text style="font-size: 7px; font-family: 'Arial', 'Helvetica', 'DejaVu Sans', sans-serif; text-anchor: end" x="269.974182" y="176.707594" transform="rotate(-0 269.974182 176.707594)">0.30</text>
     </g>
    </g>
    <g id="ytick_11">
     <g id="line2d_36">
      <path d="M 276.974182 152.039052 
L 457.056 152.039052 
" clip-path="url(#p30ac4538a8)" style="fill: none; stroke: #e6ecef; stroke-width: 0.6; stroke-linecap: square"/>
     </g>
     <g id="line2d_37">
      <g>
       <use xlink:href="#m38c890c965" x="276.974182" y="152.039052" style="stroke: #000000; stroke-width: 0.8"/>
      </g>
     </g>
     <g id="text_29">
      <text style="font-size: 7px; font-family: 'Arial', 'Helvetica', 'DejaVu Sans', sans-serif; text-anchor: end" x="269.974182" y="154.544286" transform="rotate(-0 269.974182 154.544286)">0.35</text>
     </g>
    </g>
    <g id="ytick_12">
     <g id="line2d_38">
      <path d="M 276.974182 129.875745 
L 457.056 129.875745 
" clip-path="url(#p30ac4538a8)" style="fill: none; stroke: #e6ecef; stroke-width: 0.6; stroke-linecap: square"/>
     </g>
     <g id="line2d_39">
      <g>
       <use xlink:href="#m38c890c965" x="276.974182" y="129.875745" style="stroke: #000000; stroke-width: 0.8"/>
      </g>
     </g>
     <g id="text_30">
      <text style="font-size: 7px; font-family: 'Arial', 'Helvetica', 'DejaVu Sans', sans-serif; text-anchor: end" x="269.974182" y="132.380979" transform="rotate(-0 269.974182 132.380979)">0.40</text>
     </g>
    </g>
    <g id="ytick_13">
     <g id="line2d_40">
      <path d="M 276.974182 107.712437 
L 457.056 107.712437 
" clip-path="url(#p30ac4538a8)" style="fill: none; stroke: #e6ecef; stroke-width: 0.6; stroke-linecap: square"/>
     </g>
     <g id="line2d_41">
      <g>
       <use xlink:href="#m38c890c965" x="276.974182" y="107.712437" style="stroke: #000000; stroke-width: 0.8"/>
      </g>
     </g>
     <g id="text_31">
      <text style="font-size: 7px; font-family: 'Arial', 'Helvetica', 'DejaVu Sans', sans-serif; text-anchor: end" x="269.974182" y="110.217672" transform="rotate(-0 269.974182 110.217672)">0.45</text>
     </g>
    </g>
    <g id="ytick_14">
     <g id="line2d_42">
      <path d="M 276.974182 85.54913 
L 457.056 85.54913 
" clip-path="url(#p30ac4538a8)" style="fill: none; stroke: #e6ecef; stroke-width: 0.6; stroke-linecap: square"/>
     </g>
     <g id="line2d_43">
      <g>
       <use xlink:href="#m38c890c965" x="276.974182" y="85.54913" style="stroke: #000000; stroke-width: 0.8"/>
      </g>
     </g>
     <g id="text_32">
      <text style="font-size: 7px; font-family: 'Arial', 'Helvetica', 'DejaVu Sans', sans-serif; text-anchor: end" x="269.974182" y="88.054364" transform="rotate(-0 269.974182 88.054364)">0.50</text>
     </g>
    </g>
    <g id="ytick_15">
     <g id="line2d_44">
      <path d="M 276.974182 63.385823 
L 457.056 63.385823 
" clip-path="url(#p30ac4538a8)" style="fill: none; stroke: #e6ecef; stroke-width: 0.6; stroke-linecap: square"/>
     </g>
     <g id="line2d_45">
      <g>
       <use xlink:href="#m38c890c965" x="276.974182" y="63.385823" style="stroke: #000000; stroke-width: 0.8"/>
      </g>
     </g>
     <g id="text_33">
      <text style="font-size: 7px; font-family: 'Arial', 'Helvetica', 'DejaVu Sans', sans-serif; text-anchor: end" x="269.974182" y="65.891057" transform="rotate(-0 269.974182 65.891057)">0.55</text>
     </g>
    </g>
    <g id="ytick_16">
     <g id="line2d_46">
      <path d="M 276.974182 41.222515 
L 457.056 41.222515 
" clip-path="url(#p30ac4538a8)" style="fill: none; stroke: #e6ecef; stroke-width: 0.6; stroke-linecap: square"/>
     </g>
     <g id="line2d_47">
      <g>
       <use xlink:href="#m38c890c965" x="276.974182" y="41.222515" style="stroke: #000000; stroke-width: 0.8"/>
      </g>
     </g>
     <g id="text_34">
      <text style="font-size: 7px; font-family: 'Arial', 'Helvetica', 'DejaVu Sans', sans-serif; text-anchor: end" x="269.974182" y="43.72775" transform="rotate(-0 269.974182 43.72775)">0.60</text>
     </g>
    </g>
    <g id="text_35">
     <text style="font-size: 7px; font-family: 'Arial', 'Helvetica', 'DejaVu Sans', sans-serif" transform="translate(241.776276 150.462047) rotate(-90)">Hidden built-up area</text>
     <!-- (km$^2$) -->
     <g transform="translate(250.811526 127.659) rotate(-90)">
      <text>
       <tspan x="0" y="-0.678125" style="font-size: 7px; font-family: 'Arial'">(</tspan>
       <tspan x="2.331055" y="-0.678125" style="font-size: 7px; font-family: 'Arial'">k</tspan>
       <tspan x="5.831055" y="-0.678125" style="font-size: 7px; font-family: 'Arial'">m</tspan>
       <tspan x="15.038037" y="-0.678125" style="font-size: 7px; font-family: 'Arial'">)</tspan>
       <tspan x="11.729102" y="-3.357812" style="font-size: 4.9px; font-family: 'DejaVu Sans'">2</tspan>
      </text>
     </g>
    </g>
   </g>
   <g id="line2d_48">
    <path d="M 285.159719 199.584 
L 286.53544 199.584 
L 287.91116 192.750812 
L 289.286881 162.82498 
L 290.662601 182.036539 
L 292.038322 182.036539 
L 293.414042 182.036539 
L 294.789763 162.82498 
L 296.165483 162.82498 
L 297.541204 162.82498 
L 298.916924 162.82498 
L 300.292645 162.82498 
L 301.668365 136.65638 
L 303.044086 136.65638 
L 304.419807 136.65638 
L 305.795527 136.65638 
L 307.171248 122.017625 
L 308.546968 122.017625 
L 309.922689 122.017625 
L 311.298409 122.017625 
L 312.67413 199.199628 
L 314.04985 199.199628 
L 315.425571 192.339033 
L 316.801291 162.33461 
L 318.177012 181.623223 
L 319.552732 181.623223 
L 320.928453 181.623223 
L 322.304173 162.33461 
L 323.679894 162.33461 
L 325.055615 162.33461 
L 326.431335 162.33461 
L 327.807056 162.33461 
L 329.182776 136.12357 
L 330.558497 136.12357 
L 331.934217 136.12357 
L 333.309938 136.12357 
L 334.685658 121.426102 
L 336.061379 121.426102 
L 337.437099 121.426102 
L 338.81282 121.426102 
L 340.18854 195.485525 
L 341.564261 195.485525 
L 342.939982 188.511392 
L 344.315702 157.691802 
L 345.691423 177.429321 
L 347.067143 177.429321 
L 348.442864 177.429321 
L 349.818584 157.691802 
L 351.194305 157.691802 
L 352.570025 157.691802 
L 353.945746 157.691802 
L 355.321466 157.691802 
L 356.697187 131.178179 
L 358.072907 131.178179 
L 359.448628 131.178179 
L 360.824348 131.178179 
L 362.200069 116.039627 
L 363.57579 116.039627 
L 364.95151 116.039627 
L 366.327231 116.039627 
L 367.702951 184.862515 
L 369.078672 184.862515 
L 370.454392 177.392918 
L 371.830113 144.069751 
L 373.205833 165.375267 
L 374.581554 165.375267 
L 375.957274 165.375267 
L 377.332995 144.069751 
L 378.708715 144.069751 
L 380.084436 144.069751 
L 381.460157 144.069751 
L 382.835877 144.069751 
L 384.211598 115.997081 
L 385.587318 115.997081 
L 386.963039 115.997081 
L 388.338759 115.997081 
L 389.71448 100.071826 
L 391.0902 100.071826 
L 392.465921 100.071826 
L 393.841641 100.071826 
L 395.217362 169.681337 
L 396.593082 169.681337 
L 397.968803 161.643652 
L 399.344524 125.066925 
L 400.720244 148.264215 
L 402.095965 148.264215 
L 403.471685 148.264215 
L 404.847406 125.066925 
L 406.223126 125.066925 
L 407.598847 125.066925 
L 408.974567 125.066925 
L 410.350288 125.066925 
L 411.726008 94.557538 
L 413.101729 94.557538 
L 414.477449 94.557538 
L 415.85317 94.557538 
L 417.22889 77.661532 
L 418.604611 77.661532 
L 419.980332 77.661532 
L 421.356052 77.661532 
L 422.731773 139.863729 
L 424.107493 139.863729 
L 425.483214 130.01939 
L 426.858934 87.416502 
L 428.234655 115.487998 
L 429.610375 115.487998 
L 430.986096 115.487998 
L 432.361816 87.416502 
L 433.737537 87.416502 
L 435.113257 87.416502 
L 436.488978 87.416502 
L 437.864699 87.416502 
L 439.240419 56.125951 
L 440.61614 56.125951 
L 441.99186 56.125951 
L 443.367581 56.125951 
L 444.743301 38.304 
L 446.119022 38.304 
L 447.494742 38.304 
L 448.870463 38.304 
" clip-path="url(#p30ac4538a8)" style="fill: none; stroke: #d9823b; stroke-width: 1.4; stroke-linecap: square"/>
   </g>
   <g id="patch_6">
    <path d="M 276.974182 207.648 
L 276.974182 30.24 
" style="fill: none; stroke: #000000; stroke-width: 0.7; stroke-linejoin: miter; stroke-linecap: square"/>
   </g>
   <g id="patch_7">
    <path d="M 276.974182 207.648 
L 457.056 207.648 
" style="fill: none; stroke: #000000; stroke-width: 0.7; stroke-linejoin: miter; stroke-linecap: square"/>
   </g>
   <g id="text_36">
    <text style="font-weight: 700; font-size: 9px; font-family: 'Arial', 'Helvetica', 'DejaVu Sans', sans-serif; text-anchor: start" x="276.974182" y="24.915746" transform="rotate(-0 276.974182 24.915746)">b</text>
   </g>
  </g>
  <g id="text_37">
   <text style="font-weight: 700; font-size: 8.4px; font-family: 'Arial', 'Helvetica', 'DejaVu Sans', sans-serif; text-anchor: start" x="7.2" y="13.314937" transform="rotate(-0 7.2 13.314937)">Threshold-surface sweep bounds hidden exposure across 120 specifications</text>
  </g>
 </g>
 <defs>
  <clipPath id="p2ca0cd43f2">
   <rect x="60.876" y="30.24" width="180.081818" height="177.408"/>
  </clipPath>
  <clipPath id="p30ac4538a8">
   <rect x="276.974182" y="30.24" width="180.081818" height="177.408"/>
  </clipPath>
 </defs>
</svg>
